<?xml version="1.0" encoding="UTF-8"?>
<svg width="265px" height="52px" viewBox="0 0 265 52" version="1.1" xmlns="http://www.w3.org/2000/svg" xmlns:xlink="http://www.w3.org/1999/xlink">
    <!-- Generator: Sketch 62 (91390) - https://sketch.com -->
    <title>Artboard Copy 4</title>
    <desc>Created with Sketch.</desc>
    <g id="Artboard-Copy-4" stroke="none" stroke-width="1" fill="none" fill-rule="evenodd">
        <g id="skatturinn_logo_nafn" fill="#1B1C89" fill-rule="nonzero">
            <path d="M61.4606452,35.6631935 L61.4606452,31.675129 C63.5678076,32.4181899 65.781135,32.8161074 68.0151613,32.8535161 C70.7032258,32.8535161 71.9109677,31.9183548 71.9109677,30.5302903 C71.9109677,29.2302903 71.1854839,28.5383548 68.8916129,28.202871 L66.7948387,27.8715806 C63.2596774,27.3893226 61.3432258,25.6657742 61.3432258,22.2564194 C61.3432258,18.6625484 64.0941935,15.9157742 69.5290323,15.9157742 C71.6813136,15.9275596 73.8228096,16.2207993 75.8990323,16.7880323 L75.8990323,20.6838387 C73.9840529,20.0281413 71.9765858,19.6827098 69.9525806,19.6606129 C67.3232258,19.6606129 66.1154839,20.4741613 66.1154839,21.8622258 C66.1154839,23.0993226 66.8409677,23.7954516 69.1348387,24.1267419 L71.1896774,24.4286774 C74.6912903,24.9738387 76.6412903,26.7560968 76.6412903,30.1360968 C76.6412903,33.9102903 73.8945161,36.569 68.3380645,36.569 C66.017766,36.5410915 63.7090429,36.2370158 61.4606452,35.6631935 L61.4606452,35.6631935 Z" id="Path_397"></path>
            <path d="M83.636129,30.4086774 L83.636129,36.2796452 L79.1993548,36.2796452 L79.1993548,14.8925484 L83.636129,14.8925484 L83.636129,26.7560968 L85.363871,26.7560968 C86.7078773,25.1227972 87.8903963,23.3630629 88.8948387,21.5015806 L93.8767742,21.5015806 C92.5450902,23.9670528 90.9567083,26.2849658 89.1380645,28.4167419 C90.9756458,30.9152908 92.6214244,33.5493777 94.0612903,36.2964194 L88.8906452,36.2964194 C87.8530474,34.2527662 86.6629027,32.2902191 85.3303226,30.4254516 L83.636129,30.4086774 Z" id="Path_398"></path>
            <path d="M101.420968,36.5396452 C97.193871,36.5396452 94.9293548,35.0299677 94.9293548,32.0693226 C94.9293548,29.2596452 96.7116129,27.6619032 100.729032,27.599 L104.083871,27.5109355 C104.083871,25.1835161 103.178065,24.3993226 100.942903,24.3993226 C99.2665837,24.4384261 97.6021783,24.6921035 95.9903226,25.1541613 L95.9903226,21.925129 C97.9449684,21.4869346 99.9382958,21.2439144 101.940968,21.1996452 C106.197419,21.1996452 108.369677,23.1915806 108.369677,27.2383548 L108.369677,35.7219032 C106.086603,36.2260957 103.758717,36.5000472 101.420968,36.5396452 L101.420968,36.5396452 Z M101.815161,33.6712581 C102.576703,33.6747713 103.336253,33.59319 104.079677,33.4280323 L104.079677,29.985129 L101.936774,30.0480323 C100.003548,30.0773871 99.1858065,30.7106129 99.1858065,31.8596452 C99.2025806,33.2770645 100.120968,33.6712581 101.815161,33.6712581 Z" id="Path_399"></path>
            <path d="M117.939355,36.5060968 C114.253226,36.5060968 112.198387,34.7867419 112.198387,31.192871 L112.198387,24.7599677 L110.206452,24.7599677 L110.206452,21.5015806 L112.202581,21.5015806 L112.202581,17.9957742 L116.584839,17.0019032 L116.584839,21.5015806 L120.266774,21.5015806 L120.266774,24.7599677 L116.584839,24.7599677 L116.584839,30.2577097 C116.584839,32.2202903 117.247419,32.9457742 119.100968,32.975129 C119.495887,32.9848262 119.890757,32.9539111 120.279355,32.882871 L120.279355,36.2964194 C119.506928,36.4341626 118.723965,36.5043205 117.939355,36.5060968 L117.939355,36.5060968 Z" id="Path_400"></path>
            <path d="M129.442258,36.5060968 C125.756129,36.5060968 123.705484,34.7867419 123.705484,31.192871 L123.705484,24.7599677 L121.709355,24.7599677 L121.709355,21.5015806 L123.705484,21.5015806 L123.705484,17.9957742 L128.083548,17.0019032 L128.083548,21.5015806 L131.765484,21.5015806 L131.765484,24.7599677 L128.083548,24.7599677 L128.083548,30.2577097 C128.083548,32.2202903 128.746129,32.9457742 130.599677,32.975129 C130.994596,32.9848232 131.389466,32.9539082 131.778065,32.882871 L131.778065,36.2964194 C131.007017,36.4339201 130.225468,36.5040771 129.442258,36.5060968 L129.442258,36.5060968 Z" id="Path_401"></path>
            <path d="M134.118065,30.5596452 L134.118065,21.5015806 L138.559032,21.5015806 L138.559032,30.1654516 C138.559032,32.4635161 139.523548,33.0673871 141.276452,33.0673871 C141.984839,33.0498019 142.688658,32.9484521 143.373226,32.7654516 L143.373226,21.5015806 L147.847742,21.5015806 L147.847742,35.6925484 C145.532312,36.1841726 143.177084,36.4648912 140.810968,36.5312848 C136.416129,36.5396452 134.118065,34.5770645 134.118065,30.5596452 Z" id="Path_402"></path>
            <path d="M160.009032,24.7599677 C159.41092,24.6517586 158.805126,24.5914597 158.197419,24.5796452 C157.314218,24.5882595 156.434353,24.689458 155.572258,24.8815806 L155.572258,36.2964194 L151.148065,36.2964194 L151.148065,22.1935161 C153.205829,21.5658469 155.341773,21.2312675 157.492903,21.1996452 C158.341383,21.2105103 159.188513,21.2707196 160.03,21.3799677 L160.009032,24.7599677 Z" id="Path_403"></path>
            <path d="M162.260968,15.2783548 L166.79,15.2783548 L166.79,19.0525484 L162.260968,19.0525484 L162.260968,15.2783548 Z M166.760645,36.2964194 L162.319677,36.2964194 L162.319677,21.5015806 L166.760645,21.5015806 L166.760645,36.2964194 Z" id="Path_404"></path>
            <path d="M170.073548,22.3780323 C172.483245,21.6458995 174.98235,21.249373 177.500323,21.1996452 C181.878387,21.1996452 183.933226,23.1915806 183.933226,27.209 L183.933226,36.2964194 L179.53,36.2964194 L179.53,27.599 C179.53,25.305129 178.565484,24.7012581 176.812581,24.7012581 C176.031349,24.7041012 175.256072,24.8373299 174.51871,25.0954516 L174.51871,36.2964194 L170.073548,36.2964194 L170.073548,22.3780323 Z" id="Path_405"></path>
            <path d="M187.170645,22.3780323 C189.580414,21.646212 192.079475,21.2496924 194.597419,21.1996452 C198.975484,21.1996452 201.030323,23.1915806 201.030323,27.209 L201.030323,36.2964194 L196.61871,36.2964194 L196.61871,27.599 C196.61871,25.305129 195.654194,24.7012581 193.90129,24.7012581 C193.120093,24.7044922 192.34488,24.8377097 191.607419,25.0954516 L191.607419,36.2964194 L187.170645,36.2964194 L187.170645,22.3780323 Z" id="Path_406"></path>
            <path d="M29.3506452,21.2625484 C31.5787772,21.2556834 33.717034,22.1405834 35.2887097,23.7199677 L40.2035484,28.639 C40.6349123,29.0711786 40.6349123,29.7710149 40.2035484,30.2031935 L39.3941935,31.0167419 L25.6225806,44.8135161 L25.6225806,44.8135161 L24.1380645,46.2854516 C23.7442173,46.684034 23.7442173,47.3252563 24.1380645,47.7238387 L27.8829032,51.4644839 C28.2800538,51.8578391 28.9199462,51.8578391 29.3170968,51.4644839 L50.7041935,30.0773871 C50.8674163,29.9219281 50.9749849,29.7171056 51.0103226,29.4944839 C51.0480224,29.195174 50.945955,28.8951576 50.7335484,28.6809355 L39.2809677,17.2073871 C37.17194,15.0890228 34.3024266,13.9034606 31.3132258,13.9153615 L28.1764516,13.9153615 C27.362257,13.9159434 26.5813301,14.2385657 26.0041935,14.812871 L19.6006452,21.2625484 L29.3506452,21.2625484 Z" id="Path_407"></path>
            <path d="M15.7132258,28.1399677 L10.9493548,23.3593226 C10.6690063,23.0808728 10.527541,22.6918431 10.5635484,22.2983548 C10.6024848,21.9788066 10.7506264,21.6825233 10.9829032,21.4596452 L11.5867742,20.8431935 L11.5867742,20.8431935 L26.993871,5.44448387 C27.1851673,5.25403657 27.2927081,4.99522449 27.2927081,4.72529032 C27.2927081,4.45535615 27.1851673,4.19654407 26.993871,4.00609677 L23.2406452,0.294806452 C22.8434946,-0.0985487514 22.2036022,-0.0985487514 21.8064516,0.294806452 L0.310322581,21.7783548 C0.148084591,21.9356967 0.0420051414,22.1419623 0.00838709677,22.3654516 C-0.0312663809,22.664957 0.0710871324,22.9658143 0.28516129,23.179 L11.746129,34.6399677 C13.8543583,36.759525 16.7243937,37.9453027 19.713871,37.9320156 L22.8045161,37.9320156 C23.6176223,37.9320156 24.397511,37.6093201 24.9725806,37.0344839 L31.4054839,30.6015806 L21.6512903,30.6015806 C19.4235669,30.6022198 17.2871124,29.7165568 15.7132258,28.1399677 Z" id="Path_408"></path>
        </g>
    </g>
</svg>